<svg xmlns="http://www.w3.org/2000/svg" xmlns:xlink="http://www.w3.org/1999/xlink" viewBox="0 0 280.09 280.09"><defs><style>.a{fill:url(#a);}.b{fill:none;stroke:#20558d;stroke-miterlimit:10;stroke-width:14px;}.c{opacity:0.4;}.d{fill:#215e95;}.e{fill:#fff;}</style><radialGradient id="a" cx="140.05" cy="140.05" r="238.38" gradientUnits="userSpaceOnUse"><stop offset="0" stop-color="#0796de"/><stop offset="1" stop-color="#2b578b"/></radialGradient></defs><rect class="a" x="7" y="7" width="266.09" height="266.09" rx="8.03"/><rect class="b" x="7" y="7" width="266.09" height="266.09" rx="12.11"/><g class="c"><rect class="d" x="26.75" y="24.63" width="19.95" height="230.83" rx="1.56"/><rect class="d" x="60.92" y="24.63" width="19.95" height="230.83" rx="1.56"/><rect class="d" x="94.95" y="24.63" width="19.95" height="230.83" rx="1.56"/><rect class="d" x="130.14" y="24.63" width="19.95" height="230.83" rx="1.56"/><rect class="d" x="164.17" y="24.63" width="19.95" height="230.83" rx="1.56"/><rect class="d" x="199.37" y="24.63" width="19.95" height="230.83" rx="1.56"/><rect class="d" x="233.39" y="24.63" width="19.95" height="230.83" rx="1.56"/></g><rect class="e" x="38.51" y="75.1" width="142.88" height="25.98" rx="5.25"/><rect class="e" x="9.28" y="104.33" width="84.43" height="25.98" rx="5.25" transform="translate(168.81 65.82) rotate(90)"/><rect class="e" x="38.51" y="133.55" width="142.88" height="25.98" rx="5.25" transform="translate(219.89 293.08) rotate(180)"/><rect class="e" x="126.18" y="162.78" width="84.43" height="25.98" rx="5.25" transform="translate(344.16 7.37) rotate(90)"/><rect class="e" x="37.94" y="192" width="142.88" height="25.98" rx="5.25" transform="translate(218.76 409.98) rotate(180)"/><rect class="e" x="177.62" y="72.74" width="25.98" height="4.72" rx="2.36" transform="translate(265.71 -115.51) rotate(90)"/><rect class="e" x="188.25" y="83.36" width="25.98" height="4.72" rx="2.36"/><rect class="e" x="204.19" y="78.05" width="15.35" height="4.72" rx="2.36" transform="translate(292.28 -131.45) rotate(90)"/><rect class="e" x="188.25" y="72.74" width="25.98" height="4.72" rx="2.36" transform="translate(402.48 150.2) rotate(180)"/><rect class="e" x="188.25" y="62.11" width="25.98" height="4.72" rx="2.36"/><rect class="e" x="212.36" y="67.14" width="14.78" height="4.72" rx="2.36" transform="translate(289.24 -150.25) rotate(90)"/><rect class="e" x="217.39" y="72.16" width="24.77" height="4.72" rx="2.21" transform="translate(459.54 149.04) rotate(180)"/><rect class="e" x="226.84" y="72.78" width="25.9" height="4.72" rx="2.36" transform="translate(314.93 -164.65) rotate(90)"/></svg>